# xmcd
#
# Track frame offsets: 
#        150
#        20627
#        38229
#        59635
#        77959
#        90623
#        114256
#        129510
#        143959
#        166356
#        188492
#        201845
#
# Disc length: 2922 seconds
#
# Revision: 0
# Processed by: cddbd v1.5.2PL0 Copyright (c) Steve Scherf et al.
# Submitted via: ExactAudioCopy v0.99pb4
#
DISCID=a40b680c
DTITLE=John Mays - I Found a Love
DYEAR=2011
DGENRE=Blues
TTITLE0=I Found a Love
TTITLE1=People Sure Act Funny
TTITLE2=Jealous Guy
TTITLE3=Jesus on the Mainline
TTITLE4=Think
TTITLE5=Your Good Thing is About to End
TTITLE6=99 and a Half
TTITLE7=Groove Me
TTITLE8=You're Gonna Make Me Cry
TTITLE9=Can I Change My Mind
TTITLE10=Have Mercy Baby
TTITLE11=Standing by the Bedside of a Neighbour
EXTD=
EXTT0=
EXTT1=
EXTT2=
EXTT3=
EXTT4=
EXTT5=
EXTT6=
EXTT7=
EXTT8=
EXTT9=
EXTT10=
EXTT11=
PLAYORDER=
